<svg width="34" height="34" viewBox="0 0 34 34" fill="none" xmlns="http://www.w3.org/2000/svg">
<path d="M17 0C12.4929 0.00503953 8.17178 1.79772 4.98475 4.98475C1.79772 8.17178 0.00503953 12.4929 0 17C0.00755167 21.5064 1.80104 25.826 4.98753 29.0125C8.17401 32.199 12.4936 33.9924 17 34C21.5087 34 25.8327 32.2089 29.0208 29.0208C32.2089 25.8327 34 21.5087 34 17C34 12.4913 32.2089 8.1673 29.0208 4.97918C25.8327 1.79107 21.5087 0 17 0ZM27.3401 26.8097C26.3853 24.8839 24.9114 23.2633 23.0846 22.1307C21.2578 20.998 19.1508 20.3985 17.0014 20.3996C14.8519 20.4007 12.7456 21.0025 10.92 22.1371C9.09438 23.2716 7.62216 24.8938 6.66944 26.8206C4.12748 24.1842 2.71108 20.6622 2.72 17C2.72 13.2127 4.2245 9.58053 6.90252 6.90252C9.58053 4.2245 13.2127 2.72 17 2.72C20.7873 2.72 24.4195 4.2245 27.0975 6.90252C29.7755 9.58053 31.28 13.2127 31.28 17C31.2885 20.6571 29.8758 24.1744 27.3401 26.8097ZM17 6.8C15.7896 6.8 14.6063 7.15893 13.5999 7.83141C12.5935 8.50388 11.8091 9.45969 11.3459 10.578C10.8826 11.6963 10.7615 12.9268 10.9976 14.114C11.2337 15.3011 11.8166 16.3916 12.6725 17.2475C13.5284 18.1034 14.6189 18.6863 15.806 18.9224C16.9932 19.1585 18.2237 19.0374 19.342 18.5741C20.4603 18.1109 21.4161 17.3265 22.0886 16.3201C22.7611 15.3137 23.12 14.1304 23.12 12.92C23.12 12.1163 22.9617 11.3205 22.6541 10.578C22.3466 9.83546 21.8958 9.1608 21.3275 8.59251C20.7592 8.02421 20.0845 7.57342 19.342 7.26586C18.5995 6.9583 17.8037 6.8 17 6.8Z" fill="white"/>
</svg>
